<svg xmlns="http://www.w3.org/2000/svg" viewBox="0 0 32 32" aria-label="USDC">
  <circle cx="16" cy="16" r="16" fill="#2775CA"/>
  <path fill="#fff" d="M20.022 18.124c0-2.124-1.28-2.852-3.84-3.156-1.828-.243-2.193-.728-2.193-1.578 0-.85.61-1.396 1.828-1.396 1.097 0 1.706.364 2.01 1.275.061.182.244.303.427.303h.975c.243 0 .426-.182.426-.425v-.06c-.243-1.336-1.34-2.367-2.742-2.49V9.142c0-.244-.183-.425-.487-.486h-.913c-.244 0-.426.182-.487.486v1.396c-1.828.243-2.985 1.456-2.985 2.974 0 2.002 1.218 2.791 3.778 3.095 1.706.303 2.255.668 2.255 1.639 0 .97-.853 1.638-2.011 1.638-1.584 0-2.132-.668-2.315-1.578-.061-.243-.244-.364-.426-.364h-1.036c-.244 0-.426.182-.426.425v.06c.243 1.518 1.218 2.61 3.229 2.913v1.457c0 .242.183.424.487.485h.913c.243 0 .426-.182.487-.485V21.34c1.828-.303 3.046-1.578 3.046-3.216z"/>
  <path fill="#fff" d="M12.18 25.293c-4.752-1.7-7.19-6.99-5.422-11.673.913-2.55 2.924-4.49 5.421-5.4.244-.121.366-.303.366-.607v-.85c0-.243-.122-.425-.366-.486-.061 0-.183 0-.244.061-5.787 1.821-8.954 7.948-7.127 13.71 1.097 3.4 3.717 6.005 7.127 7.099.243.122.487 0 .548-.243.061-.061.061-.122.061-.243v-.85c0-.182-.183-.425-.365-.518zm7.628-18.954c-.244-.122-.487 0-.549.242-.061.061-.061.122-.061.244v.85c0 .242.183.485.366.606 4.752 1.7 7.19 6.99 5.421 11.673-.913 2.55-2.924 4.49-5.421 5.4-.244.122-.366.304-.366.607v.85c0 .242.122.425.366.485.061 0 .182 0 .243-.06 5.787-1.822 8.954-7.949 7.127-13.71-1.097-3.46-3.778-6.066-7.127-7.187z"/>
</svg>
